HIERARCHY
ROOT Pelvis
{
	OFFSET 0.000000 0.000000 0.000000
	CHANNELS 6 Xposition Yposition Zposition Xrotation Yrotation Zrotation
	JOINT LeftUpLeg_virtual
	{
		OFFSET 0.000000 0.000000 0.000000
		CHANNELS 3 Xrotation Yrotation Zrotation
		JOINT LeftUpLeg
		{
			OFFSET 18.735201 -5.666702 -4.541200
			CHANNELS 3 Xrotation Yrotation Zrotation
			JOINT LeftLeg
			{
				OFFSET -0.021200 -31.938179 0.493100
				CHANNELS 3 Xrotation Yrotation Zrotation
				JOINT LeftFoot
				{
					OFFSET 0.021200 -31.938179 -4.336299
					CHANNELS 3 Xrotation Yrotation Zrotation
					JOINT LeftToeBase
					{
						OFFSET 0.943001 -26.722000 15.023500
						CHANNELS 3 Xrotation Yrotation Zrotation
						End Site
						{
							OFFSET 0 0 0
						}
					}
				}
			}
		}
	}
	JOINT RightUpLeg_virtual
	{
		OFFSET 0.000000 0.000000 0.000000
		CHANNELS 3 Xrotation Yrotation Zrotation
		JOINT RightUpLeg
		{
			OFFSET -18.735201 -5.666702 -4.541200
			CHANNELS 3 Xrotation Yrotation Zrotation
			JOINT RightLeg
			{
				OFFSET 0.018946 -31.938133 0.493100
				CHANNELS 3 Xrotation Yrotation Zrotation
				JOINT RightFoot
				{
					OFFSET -0.018946 -31.938126 -4.336299
					CHANNELS 3 Xrotation Yrotation Zrotation
					JOINT RightToeBase
					{
						OFFSET -0.943001 -26.722004 15.023500
						CHANNELS 3 Xrotation Yrotation Zrotation
						End Site
						{
							OFFSET 0 0 0
						}
					}
				}
			}
		}
	}
	JOINT Hips_virtual
	{
		OFFSET 0.000000 0.000000 0.000000
		CHANNELS 3 Xrotation Yrotation Zrotation
		JOINT Hips
		{
			OFFSET -0.000000 -0.000000 -0.000000
			CHANNELS 3 Xrotation Yrotation Zrotation
			JOINT Spine
			{
				OFFSET 0.000000 10.199997 -0.299500
				CHANNELS 3 Xrotation Yrotation Zrotation
				JOINT Spine1
				{
					OFFSET 0.000000 11.900002 -1.516600
					CHANNELS 3 Xrotation Yrotation Zrotation
					JOINT Spine2
					{
						OFFSET 0.000000 13.600006 -2.842500
						CHANNELS 3 Xrotation Yrotation Zrotation
						JOINT Neck_virtual
						{
							OFFSET 0.000000 0.000000 0.000000
							CHANNELS 3 Xrotation Yrotation Zrotation
							JOINT Neck
							{
								OFFSET 0.000000 9.624100 -2.890100
								CHANNELS 3 Xrotation Yrotation Zrotation
								JOINT Head
								{
									OFFSET 0.000000 14.068802 -1.351900
									CHANNELS 3 Xrotation Yrotation Zrotation
									End Site
									{
										OFFSET 0 0 0
									}
								}
							}
						}
						JOINT LeftShoulder_virtual
						{
							OFFSET 0.000000 0.000000 0.000000
							CHANNELS 3 Xrotation Yrotation Zrotation
							JOINT LeftShoulder
							{
								OFFSET 15.263000 10.923401 -0.547700
								CHANNELS 3 Xrotation Yrotation Zrotation
								JOINT LeftArm
								{
									OFFSET 25.438599 -2.830597 -13.032500
									CHANNELS 3 Xrotation Yrotation Zrotation
									JOINT LeftForeArm
									{
										OFFSET 29.960503 0.000000 0.000000
										CHANNELS 3 Xrotation Yrotation Zrotation
										JOINT LeftHand
										{
											OFFSET 27.849251 0.000000 0.000000
											CHANNELS 3 Xrotation Yrotation Zrotation
											End Site
											{
												OFFSET 0 0 0
											}
										}
									}
								}
							}
						}
						JOINT RightShoulder_virtual
						{
							OFFSET 0.000000 0.000000 0.000000
							CHANNELS 3 Xrotation Yrotation Zrotation
							JOINT RightShoulder
							{
								OFFSET -15.263000 10.923401 -0.547700
								CHANNELS 3 Xrotation Yrotation Zrotation
								JOINT RightArm
								{
									OFFSET -25.438599 -2.830597 -13.032500
									CHANNELS 3 Xrotation Yrotation Zrotation
									JOINT RightForeArm
									{
										OFFSET -29.960503 0.000000 0.000000
										CHANNELS 3 Xrotation Yrotation Zrotation
										JOINT RightHand
										{
											OFFSET -27.849251 0.000000 0.000000
											CHANNELS 3 Xrotation Yrotation Zrotation
											End Site
											{
												OFFSET 0 0 0
											}
										}
									}
								}
							}
						}
					}
				}
			}
		}
	}
}
MOTION
Frames: 13
Frame Time: 0.03333333
-2.241388 75.163223 1.609493 0.000000 0.000000 0.000000 1.775171 -52.595899 14.862357 -51.199918 -9.330691 27.435342 49.462072 -3.754445 -10.138879 -3.918459 1.442359 -23.034417 0.000000 0.000000 0.000000 6.300791 -54.062634 -4.733599 -28.609781 -17.390845 -28.650427 49.416989 11.471426 1.468650 -9.013636 6.053813 22.618583 0.000000 0.000000 0.000000 -3.058969 -36.608830 0.295359 -6.195237 -36.477219 -3.956809 8.562086 -0.914612 -3.028618 4.011675 0.147856 -2.236382 0.000000 0.000000 0.000000 5.028870 3.463360 -0.858706 0.577157 3.221946 -0.101477 0.000000 0.000000 0.000000 4.482165 -0.632225 -2.577379 1.412115 -6.724973 -11.001037 -36.469358 -10.214825 -26.886311 -6.589661 -44.071601 2.008926 0.000000 0.000000 0.000000 4.768046 1.050336 -0.828609 3.633318 10.470120 0.751284 -2.555658 51.137073 8.657981 151.175637 74.880744 -155.863442 0.000000 0.000000 0.000000 
-2.271405 75.276283 1.573757 0.000000 0.000000 0.000000 1.850195 -52.738326 15.034452 -51.234595 -9.421364 27.538035 49.481391 -3.757320 -10.233237 -3.863339 1.489029 -23.218093 0.000000 0.000000 0.000000 6.336483 -54.123389 -4.698944 -28.595345 -17.400525 -28.653917 49.590968 11.548714 1.426563 -8.879787 6.175271 22.632223 0.000000 0.000000 0.000000 -3.152649 -36.873985 0.303232 -6.297174 -36.313254 -4.068597 8.543273 -0.951646 -3.009402 4.026444 0.137400 -2.211427 0.000000 0.000000 0.000000 5.017986 3.444475 -0.849944 0.574284 3.248876 -0.099381 0.000000 0.000000 0.000000 4.502351 -0.660892 -2.640940 1.387361 -6.699343 -11.159264 -36.307926 -10.260353 -26.689601 -6.442458 -43.890000 2.040803 0.000000 0.000000 0.000000 4.733468 1.047930 -0.752571 3.598236 10.405534 0.979081 -2.229233 51.147281 8.414385 151.884993 74.630096 -156.503881 0.000000 0.000000 0.000000 
-2.328387 75.490807 1.494363 0.000000 0.000000 0.000000 1.980807 -52.992999 15.318289 -51.297552 -9.572124 27.704262 49.521033 -3.750485 -10.397448 -3.758331 1.581696 -23.537952 0.000000 0.000000 0.000000 6.398325 -54.213643 -4.620926 -28.577435 -17.412071 -28.648689 49.922116 11.675721 1.342206 -8.618583 6.393087 22.638042 0.000000 0.000000 0.000000 -3.352789 -37.397246 0.308036 -6.463341 -35.995729 -4.290917 8.502957 -1.014616 -2.968384 4.053174 0.116274 -2.165057 0.000000 0.000000 0.000000 4.991764 3.410295 -0.829055 0.570064 3.297679 -0.092887 0.000000 0.000000 0.000000 4.544347 -0.713128 -2.758499 1.344572 -6.646224 -11.449056 -35.977878 -10.353497 -26.361296 -6.160408 -43.588457 2.086716 0.000000 0.000000 0.000000 4.678650 1.043515 -0.610953 3.539175 10.290609 1.400160 -1.688418 51.125544 8.031876 153.091150 74.208052 -157.574595 0.000000 0.000000 0.000000 
-2.402992 75.787659 1.360172 0.000000 0.000000 0.000000 2.129150 -53.304572 15.610274 -51.379080 -9.731461 27.869246 49.581351 -3.714088 -10.592500 -3.612748 1.719034 -23.917577 0.000000 0.000000 0.000000 6.469414 -54.281446 -4.491593 -28.571323 -17.412464 -28.619053 50.372785 11.806957 1.218472 -8.248465 6.662437 22.603101 0.000000 0.000000 0.000000 -3.674064 -38.159768 0.294049 -6.630602 -35.538424 -4.617837 8.439716 -1.086981 -2.902298 4.086591 0.084016 -2.103083 0.000000 0.000000 0.000000 4.944500 3.366479 -0.791032 0.566798 3.360227 -0.078767 0.000000 0.000000 0.000000 4.610393 -0.781247 -2.912983 1.294589 -6.564126 -11.826511 -35.469053 -10.507152 -26.011797 -5.763186 -43.277636 2.119518 0.000000 0.000000 0.000000 4.626351 1.037380 -0.421860 3.473132 10.146675 1.955857 -1.109580 51.000305 7.683814 154.496393 73.747383 -158.782610 0.000000 0.000000 0.000000 
-2.477083 76.145531 1.164668 0.000000 0.000000 0.000000 2.243816 -53.603345 15.793733 -51.470373 -9.843396 27.964405 49.659683 -3.629168 -10.779107 -3.438199 1.898458 -24.279140 0.000000 0.000000 0.000000 6.530054 -54.270832 -4.314941 -28.587075 -17.387997 -28.557190 50.881515 11.893660 1.064987 -7.805993 6.927975 22.497209 0.000000 0.000000 0.000000 -4.117698 -39.123242 0.250110 -6.731179 -34.951755 -5.034173 8.358342 -1.154932 -2.809688 4.120018 0.039905 -2.031608 0.000000 0.000000 0.000000 4.873349 3.318507 -0.731656 0.566453 3.428149 -0.054757 0.000000 0.000000 0.000000 4.701792 -0.858647 -3.083095 1.248065 -6.455279 -12.244126 -34.773292 -10.755790 -25.765301 -5.270450 -43.094921 2.114989 0.000000 0.000000 0.000000 4.598630 1.029133 -0.206410 3.415423 9.992737 2.579623 -0.661672 50.688661 7.557005 155.850082 73.392650 -159.883472 0.000000 0.000000 0.000000 
-2.525886 76.544716 0.913969 0.000000 0.000000 0.000000 2.272285 -53.822662 15.775036 -51.565872 -9.865639 27.939556 49.749069 -3.485083 -10.929016 -3.246791 2.114691 -24.566739 0.000000 0.000000 0.000000 6.564627 -54.138320 -4.110386 -28.622442 -17.329074 -28.469665 51.367172 11.896931 0.898862 -7.346405 7.134619 22.304068 0.000000 0.000000 0.000000 -4.661113 -40.224022 0.177339 -6.715716 -34.243836 -5.513188 8.271973 -1.213690 -2.692489 4.147304 -0.017050 -1.955228 0.000000 0.000000 0.000000 4.780659 3.269704 -0.649303 0.569879 3.494981 -0.020775 0.000000 0.000000 0.000000 4.817605 -0.942776 -3.246859 1.211202 -6.328829 -12.661989 -33.887594 -11.159120 -25.728300 -4.695545 -43.177574 2.061958 0.000000 0.000000 0.000000 4.608689 1.017506 0.016083 3.373856 9.839326 3.212883 -0.445132 50.112702 7.800319 156.999862 73.261893 -160.730552 0.000000 0.000000 0.000000 
-2.525239 76.967506 0.630961 0.000000 0.000000 0.000000 2.180304 -53.917862 15.516346 -51.662291 -9.783420 27.778999 49.839942 -3.283568 -11.029641 -3.049169 2.358390 -24.757757 0.000000 0.000000 0.000000 6.569881 -53.862684 -3.904499 -28.660860 -17.233436 -28.374824 51.743351 11.794966 0.741347 -6.934753 7.237521 22.025062 0.000000 0.000000 0.000000 -5.259236 -41.377085 0.091174 -6.569996 -33.428107 -6.018523 8.199130 -1.268992 -2.555859 4.164742 -0.088182 -1.876199 0.000000 0.000000 0.000000 4.673346 3.220297 -0.545502 0.576671 3.556798 0.021052 0.000000 0.000000 0.000000 4.954352 -1.035906 -3.384563 1.183508 -6.202245 -13.052013 -32.816542 -11.793373 -25.966786 -4.042860 -43.636876 1.967147 0.000000 0.000000 0.000000 4.657362 1.000658 0.231582 3.347225 9.687974 3.815459 -0.466561 49.210454 8.492998 157.873252 73.427484 -161.255288 0.000000 0.000000 0.000000 
-2.460039 77.396568 0.353084 0.000000 0.000000 0.000000 1.969787 -53.879899 15.052461 -51.754881 -9.613855 27.506570 49.925111 -3.038599 -11.082833 -2.852552 2.616134 -24.861723 0.000000 0.000000 0.000000 6.561231 -53.445984 -3.715920 -28.674954 -17.106673 -28.293381 51.939159 11.583448 0.612209 -6.629811 7.209062 21.675993 0.000000 0.000000 0.000000 -5.856819 -42.492543 0.016391 -6.317358 -32.530115 -6.509488 8.156906 -1.333797 -2.406592 4.171908 -0.175394 -1.794826 0.000000 0.000000 0.000000 4.560248 3.167536 -0.424432 0.585627 3.611483 0.067317 0.000000 0.000000 0.000000 5.106912 -1.143608 -3.480722 1.158645 -6.100175 -13.394907 -31.577976 -12.733185 -26.495926 -3.309710 -44.539855 1.854755 0.000000 0.000000 0.000000 4.735290 0.976583 0.432592 3.328285 9.534239 4.368693 -0.652833 47.942150 9.635362 158.432849 73.918616 -161.423557 0.000000 0.000000 0.000000 
-2.329745 77.813660 0.123520 0.000000 0.000000 0.000000 1.683814 -53.737145 14.482004 -51.833916 -9.399154 27.178112 50.006219 -2.773017 -11.101008 -2.658971 2.872274 -24.911631 0.000000 0.000000 0.000000 6.572448 -52.908305 -3.543842 -28.633422 -16.960246 -28.238152 51.917832 11.271172 0.525040 -6.468007 7.041044 21.280327 0.000000 0.000000 0.000000 -6.404644 -43.498770 -0.022614 -6.004317 -31.584523 -6.947255 8.154392 -1.422860 -2.250727 4.170886 -0.281343 -1.710600 0.000000 0.000000 0.000000 4.449269 3.106427 -0.291897 0.595339 3.657541 0.114463 0.000000 0.000000 0.000000 5.269849 -1.272169 -3.524833 1.127581 -6.050188 -13.673043 -30.213297 -14.032771 -27.281784 -2.492092 -45.903915 1.762214 0.000000 0.000000 0.000000 4.828984 0.943125 0.617534 3.308773 9.370495 4.873024 -0.890773 46.291289 11.158185 158.634012 74.735179 -161.196699 0.000000 0.000000 0.000000 
-2.148481 78.200455 -0.020559 0.000000 0.000000 0.000000 1.393520 -53.544059 13.934184 -51.884535 -9.191400 26.863641 50.097778 -2.513665 -11.103525 -2.464831 3.111925 -24.953191 0.000000 0.000000 0.000000 6.647271 -52.280413 -3.367065 -28.508842 -16.808547 -28.208497 51.684520 10.873951 0.485533 -6.455376 6.741755 20.862476 0.000000 0.000000 0.000000 -6.869171 -44.358257 -0.009874 -5.676495 -30.625216 -7.297855 8.190199 -1.548092 -2.091579 4.164699 -0.409300 -1.623219 0.000000 0.000000 0.000000 4.345806 3.030645 -0.154257 0.604542 3.693332 0.159504 0.000000 0.000000 0.000000 5.438287 -1.426493 -3.510996 1.082366 -6.076940 -13.863790 -28.798516 -15.714981 -28.253279 -1.591837 -47.706638 1.733375 0.000000 0.000000 0.000000 4.927081 0.897474 0.789193 3.283625 9.186534 5.342593 -1.070328 44.262935 12.944852 158.393070 75.859428 -160.502793 0.000000 0.000000 0.000000 
-1.940954 78.541542 -0.057766 0.000000 0.000000 0.000000 1.173251 -53.360539 13.526613 -51.891334 -9.035510 26.626478 50.225700 -2.286786 -11.114175 -2.262659 3.323692 -25.035524 0.000000 0.000000 0.000000 6.826147 -51.596567 -3.153826 -28.283477 -16.665844 -28.191227 51.279930 10.409175 0.492700 -6.571278 6.329508 20.443096 0.000000 0.000000 0.000000 -7.232831 -45.068378 0.059674 -5.360219 -29.675451 -7.533217 8.254865 -1.716633 -1.928799 4.156089 -0.562314 -1.532863 0.000000 0.000000 0.000000 4.252442 2.933407 -0.017443 0.612123 3.717041 0.200214 0.000000 0.000000 0.000000 5.607672 -1.609353 -3.436616 1.018793 -6.196744 -13.936328 -27.448384 -17.771005 -29.320011 -0.621120 -49.906205 1.811698 0.000000 0.000000 0.000000 5.023763 0.835567 0.953195 3.252326 8.968735 5.799413 -1.115329 41.881142 14.861272 157.562055 77.259371 -159.211587 0.000000 0.000000 0.000000 
-1.736040 78.828430 0.013765 0.000000 0.000000 0.000000 1.076872 -53.231305 13.333849 -51.845801 -8.957429 26.508048 50.419838 -2.114501 -11.158991 -2.044959 3.501184 -25.203903 0.000000 0.000000 0.000000 7.133737 -50.888174 -2.875912 -27.952255 -16.543727 -28.166329 50.763018 9.892347 0.541617 -6.781430 5.825432 20.036841 0.000000 0.000000 0.000000 -7.487620 -45.647428 0.183698 -5.058766 -28.746169 -7.631516 8.336095 -1.931264 -1.758853 4.147126 -0.742092 -1.439633 0.000000 0.000000 0.000000 4.169664 2.808237 0.113958 0.617014 3.727119 0.235084 0.000000 0.000000 0.000000 5.773170 -1.821808 -3.300670 0.937408 -6.414807 -13.852922 -26.308007 -20.168627 -30.391504 0.399127 -52.463195 2.036082 0.000000 0.000000 0.000000 5.118644 0.751953 1.116860 3.217868 8.699942 6.267908 -0.994915 39.186530 16.785887 155.896855 78.884402 -157.099269 0.000000 0.000000 0.000000 
-1.560297 79.062347 0.178824 0.000000 0.000000 0.000000 1.124931 -53.173952 13.377176 -51.752436 -8.961149 26.522936 50.703377 -2.012388 -11.263113 -1.808836 3.643259 -25.493657 0.000000 0.000000 0.000000 7.572558 -50.177551 -2.519805 -27.522266 -16.448883 -28.113918 50.190504 9.335795 0.626069 -7.053334 5.248318 19.652107 0.000000 0.000000 0.000000 -7.630064 -46.117588 0.357159 -4.758726 -27.843546 -7.578348 8.422421 -2.191908 -1.576368 4.139336 -0.948089 -1.342837 0.000000 0.000000 0.000000 4.096517 2.649715 0.237443 0.618179 3.722694 0.263344 0.000000 0.000000 0.000000 5.929488 -2.063841 -3.102308 0.843174 -6.725568 -13.573235 -25.532944 -22.862451 -31.392376 1.448208 -55.353376 2.442191 0.000000 0.000000 0.000000 5.214402 0.640488 1.288116 3.184807 8.361060 6.769973 -0.718708 36.234830 18.630951 152.990978 80.660764 -153.777106 0.000000 0.000000 0.000000 
